<svg width="24" height="24" viewBox="0 0 24 24" fill="none" xmlns="http://www.w3.org/2000/svg">
<path d="M17.1272 19C15.5753 19 14.0162 18.6391 12.4498 17.9175C10.8836 17.1958 9.4446 16.1778 8.13268 14.8634C6.82093 13.5489 5.80421 12.1098 5.08253 10.5461C4.36085 8.98245 4 7.42468 4 5.87274C4 5.62335 4.08235 5.41554 4.24706 5.24932C4.41176 5.08311 4.61765 5 4.86471 5H7.55065C7.75859 5 7.94203 5.06788 8.10097 5.20362C8.25991 5.33923 8.361 5.50682 8.40423 5.70638L8.87632 8.12941C8.90899 8.35424 8.90212 8.54742 8.85574 8.70897C8.80921 8.87052 8.72576 9.0062 8.60538 9.116L6.70344 10.9675C7.00952 11.528 7.35924 12.0583 7.75262 12.5584C8.14585 13.0582 8.57162 13.5357 9.02991 13.9907C9.48174 14.4427 9.96211 14.8623 10.471 15.2498C10.98 15.6373 11.5296 15.9979 12.1198 16.3316L13.9678 14.4675C14.0967 14.3334 14.2528 14.2394 14.436 14.1855C14.6191 14.1316 14.8094 14.1184 15.0069 14.146L17.2937 14.6117C17.5016 14.6665 17.6712 14.7726 17.8028 14.9299C17.9343 15.0872 18 15.2656 18 15.4652V18.1353C18 18.3824 17.9169 18.5882 17.7507 18.7529C17.5844 18.9176 17.3767 19 17.1272 19ZM6.11894 9.79871L7.58874 8.39232C7.61509 8.37118 7.63224 8.34215 7.64021 8.30524C7.64817 8.26832 7.64686 8.234 7.63629 8.20229L7.27826 6.36191C7.2677 6.31977 7.24924 6.28814 7.22288 6.267C7.19653 6.24586 7.16221 6.23529 7.11994 6.23529H5.35882C5.32712 6.23529 5.3007 6.24586 5.27956 6.267C5.25856 6.28814 5.24806 6.31456 5.24806 6.34626C5.2902 6.90901 5.38229 7.48068 5.52435 8.06126C5.66627 8.64199 5.86447 9.22114 6.11894 9.79871ZM13.2836 16.9159C13.8295 17.1704 14.3989 17.3649 14.9916 17.4995C15.5846 17.634 16.1386 17.714 16.6537 17.7394C16.6854 17.7394 16.7118 17.7288 16.733 17.7076C16.7542 17.6866 16.7647 17.6601 16.7647 17.6284V15.896C16.7647 15.8536 16.7542 15.8193 16.733 15.793C16.7118 15.7667 16.6802 15.7481 16.638 15.7376L14.9086 15.3859C14.8769 15.3754 14.8493 15.3741 14.8255 15.382C14.8017 15.39 14.7766 15.4071 14.7502 15.4335L13.2836 16.9159Z" fill="#000099"/>
</svg>
