<svg width="42" height="42" viewBox="0 0 42 42" fill="none" xmlns="http://www.w3.org/2000/svg">
<path fill-rule="evenodd" clip-rule="evenodd" d="M26.6207 16.201V15.0486H8.42838V16.201H26.6207ZM25.6139 10.9565H9.43512V11.9095H25.6139V10.9565ZM9.01344 10.1131H26.0356C26.2687 10.1131 26.4573 10.3021 26.4573 10.5348V12.3312C26.4573 12.5643 26.2683 12.7528 26.0356 12.7528H9.01344C8.78034 12.7528 8.59176 12.5638 8.59176 12.3312V10.5348C8.59176 10.3017 8.78076 10.1131 9.01344 10.1131ZM18.056 6.69517C17.9183 6.54481 17.7301 6.45199 17.5243 6.45199C17.3185 6.45199 17.1308 6.54481 16.9926 6.69517C16.8464 6.85435 16.7561 7.07779 16.7561 7.32769C16.7561 7.57759 16.8464 7.80103 16.9926 7.96021C17.1304 8.11057 17.3185 8.20339 17.5243 8.20339C17.7301 8.20339 17.9179 8.11057 18.056 7.96021C18.2022 7.80103 18.2925 7.57759 18.2925 7.32769C18.2925 7.07779 18.2022 6.85435 18.056 6.69517ZM17.5243 5.60821C17.9758 5.60821 18.3824 5.80561 18.6751 6.12481C18.9595 6.43519 19.1354 6.86023 19.1354 7.32727C19.1354 7.79431 18.9595 8.21935 18.6751 8.52973C18.3824 8.84893 17.9754 9.04633 17.5243 9.04633C17.0732 9.04633 16.6663 8.84893 16.3735 8.52973C16.0892 8.21935 15.9132 7.79431 15.9132 7.32727C15.9132 6.86023 16.0892 6.43519 16.3735 6.12481C16.6663 5.80561 17.0732 5.60821 17.5243 5.60821ZM12.8753 27.7783V24.8068C12.8753 24.5737 13.0643 24.3852 13.297 24.3852H26.6203V19.0411H8.42838V27.7788L12.8753 27.7783ZM15.4155 26.583V33.5101H14.5721V26.583H15.4155ZM17.1123 26.583V33.5101H16.2689V26.583H17.1123ZM18.8091 26.583V33.5101H17.9657V26.583H18.8091ZM20.5059 26.583V33.5101H19.6625V26.583H20.5059ZM22.2027 26.583V33.5101H21.3593V26.583H22.2027ZM23.8995 26.583V33.5101H23.0561V26.583H23.8995ZM25.5963 26.583V33.5101H24.7529V26.583H25.5963ZM30.1978 35.4362C30.4036 35.2308 30.6875 35.1035 31.0009 35.1035C31.3142 35.1035 31.5985 35.2308 31.8039 35.4362C32.0093 35.6416 32.1365 35.9259 32.1365 36.2392C32.1365 36.5525 32.0093 36.8369 31.8039 37.0423C31.5985 37.2477 31.3142 37.3749 31.0009 37.3749C30.6875 37.3749 30.4032 37.2477 30.1978 37.0423C29.9924 36.8365 29.8652 36.5525 29.8652 36.2392C29.8652 35.9259 29.9924 35.6416 30.1978 35.4362ZM31.0009 35.9469C30.9202 35.9469 30.8467 35.9797 30.7942 36.0326C30.7413 36.0855 30.7085 36.1586 30.7085 36.2392C30.7085 36.3199 30.7413 36.3934 30.7942 36.4459C30.8471 36.4984 30.9202 36.5315 31.0009 36.5315C31.0815 36.5315 31.155 36.4988 31.2075 36.4459C31.2604 36.393 31.2932 36.3199 31.2932 36.2392C31.2932 36.1586 31.2604 36.0851 31.2075 36.0326C31.1546 35.9797 31.0815 35.9469 31.0009 35.9469ZM33.3142 35.7079C33.3533 35.8789 33.3739 36.0565 33.3739 36.2392C33.3739 36.4181 33.3541 36.5929 33.3163 36.7604H35.6692V35.7079H33.3142ZM20.1178 35.4362C20.3236 35.2308 20.6075 35.1035 20.9209 35.1035C21.2342 35.1035 21.5185 35.2308 21.7239 35.4362C21.9293 35.6416 22.0565 35.9259 22.0565 36.2392C22.0565 36.5525 21.9293 36.8369 21.7239 37.0423C21.5185 37.2477 21.2342 37.3749 20.9209 37.3749C20.6075 37.3749 20.3232 37.2477 20.1178 37.0423C19.9124 36.8369 19.7852 36.5525 19.7852 36.2392C19.7852 35.9259 19.9124 35.6416 20.1178 35.4362ZM20.9209 35.9469C20.8402 35.9469 20.7667 35.9797 20.7142 36.0326C20.6613 36.0855 20.6285 36.1586 20.6285 36.2392C20.6285 36.3199 20.6613 36.3934 20.7142 36.4459C20.7671 36.4988 20.8402 36.5315 20.9209 36.5315C21.0015 36.5315 21.075 36.4988 21.1275 36.4459C21.1804 36.393 21.2132 36.3199 21.2132 36.2392C21.2132 36.1586 21.1804 36.0851 21.1275 36.0326C21.0746 35.9797 21.0015 35.9469 20.9209 35.9469ZM23.2342 35.7079C23.2733 35.8789 23.2939 36.0565 23.2939 36.2392C23.2939 36.4181 23.2741 36.5929 23.2363 36.7604H28.6858C28.648 36.5924 28.6283 36.4181 28.6283 36.2392C28.6283 36.0565 28.6489 35.8789 28.6879 35.7079H23.2342ZM20.9209 34.71C20.4983 34.71 20.1161 34.8814 19.8394 35.1577C19.7402 35.2568 19.6546 35.3698 19.5857 35.4929V35.4941L19.584 35.4963C19.4614 35.7163 19.3916 35.9696 19.3916 36.2392C19.3916 36.5089 19.4614 36.7613 19.5832 36.9809C19.6525 37.1061 19.739 37.2204 19.8394 37.3207C20.1161 37.5975 20.4983 37.7684 20.9209 37.7684C21.3434 37.7684 21.7256 37.5971 22.0024 37.3207C22.1027 37.2204 22.1888 37.1061 22.2586 36.9814C22.3808 36.7613 22.4501 36.5084 22.4501 36.2392C22.4501 35.97 22.3804 35.7163 22.2577 35.4963L22.2565 35.4937L22.2552 35.4916C22.1863 35.369 22.1011 35.2564 22.0019 35.1577C21.7252 34.881 21.3434 34.71 20.9209 34.71ZM14.8279 35.4362C15.0337 35.2308 15.3176 35.1035 15.631 35.1035C15.9443 35.1035 16.2286 35.2308 16.434 35.4362C16.6394 35.6416 16.7666 35.9259 16.7666 36.2392C16.7666 36.5525 16.6394 36.8369 16.434 37.0423C16.2286 37.2481 15.9443 37.3749 15.631 37.3749C15.3176 37.3749 15.0333 37.2477 14.8279 37.0423C14.6225 36.8369 14.4953 36.5525 14.4953 36.2392C14.4953 35.9259 14.6225 35.6416 14.8279 35.4362ZM15.631 35.9469C15.5503 35.9469 15.4768 35.9797 15.4243 36.0326C15.3714 36.0855 15.3386 36.1586 15.3386 36.2392C15.3386 36.3199 15.3714 36.3934 15.4243 36.4459C15.4772 36.4988 15.5503 36.5315 15.631 36.5315C15.7116 36.5315 15.7851 36.4988 15.8376 36.4459C15.8905 36.393 15.9233 36.3199 15.9233 36.2392C15.9233 36.1586 15.8905 36.0851 15.8376 36.0326C15.7847 35.9801 15.7116 35.9469 15.631 35.9469ZM13.3155 36.7609C13.2777 36.5929 13.258 36.4186 13.258 36.2396C13.258 36.0569 13.2785 35.8793 13.3176 35.7083H12.4595V36.7609H13.3155ZM17.9439 35.7083C17.983 35.8793 18.0035 36.0569 18.0035 36.2396C18.0035 36.4186 17.9838 36.5933 17.946 36.7609H18.605C18.5672 36.5929 18.5474 36.4186 18.5474 36.2396C18.5474 36.0569 18.568 35.8793 18.6071 35.7083H17.9439ZM13.9531 34.5618C13.8686 34.6462 13.7905 34.7369 13.7195 34.8335V25.2289H26.4493V34.865H22.8545C22.7777 34.7571 22.692 34.6554 22.5983 34.5622C22.1691 34.1329 21.5756 33.8671 20.9204 33.8671C20.2652 33.8671 19.6722 34.1329 19.2425 34.5622C19.1489 34.6558 19.0632 34.7571 18.9863 34.865H17.5651C17.4882 34.7571 17.4021 34.6554 17.3089 34.5622C16.8796 34.1329 16.2862 33.8671 15.631 33.8671C14.9758 33.8671 14.3827 34.1325 13.9531 34.5618ZM15.631 34.71C15.2084 34.71 14.8262 34.8814 14.5495 35.1577C14.4503 35.2568 14.3647 35.3698 14.2958 35.4929V35.4941L14.2941 35.4963C14.1715 35.7163 14.1017 35.9696 14.1017 36.2392C14.1017 36.5089 14.1715 36.7613 14.2933 36.9809C14.3626 37.1061 14.4491 37.2204 14.5495 37.3207C14.8262 37.5975 15.2084 37.7684 15.631 37.7684C16.0535 37.7684 16.4357 37.5971 16.7125 37.3207C16.8128 37.2204 16.8989 37.1061 16.9687 36.9814C17.0909 36.7613 17.1602 36.5084 17.1602 36.2392C17.1602 35.97 17.0905 35.7163 16.9678 35.4963L16.9666 35.4937L16.9653 35.4916C16.8964 35.369 16.8112 35.2564 16.712 35.1577C16.4353 34.881 16.0531 34.71 15.6305 34.71H15.631ZM32.3377 35.4967L32.3365 35.4941L32.3352 35.492C32.2663 35.3694 32.1811 35.2568 32.0819 35.1581C31.8052 34.8814 31.423 34.7104 31.0004 34.7104C30.5779 34.7104 30.1957 34.8818 29.9189 35.1581C29.8198 35.2573 29.7341 35.3698 29.6653 35.4933L29.6648 35.4946L29.6636 35.4967C29.5409 35.7167 29.4712 35.97 29.4712 36.2396C29.4712 36.5093 29.5409 36.7617 29.6627 36.9814C29.732 37.1065 29.8186 37.2208 29.9189 37.3212C30.1957 37.5979 30.5779 37.7689 31.0004 37.7689C31.423 37.7689 31.8052 37.5975 32.0819 37.3212C32.1823 37.2208 32.2684 37.1065 32.3381 36.9818C32.4604 36.7617 32.5297 36.5089 32.5297 36.2396C32.5297 35.9704 32.4604 35.7167 32.3377 35.4967ZM34.4087 34.8646H32.9345C32.8577 34.7566 32.772 34.655 32.6783 34.5618C32.2491 34.1325 31.6556 33.8666 31.0004 33.8666C30.3452 33.8666 29.7522 34.1325 29.3225 34.5618C29.2289 34.6554 29.1432 34.7566 29.0663 34.8646H27.2927V27.3688H32.1004L34.4087 31.9103V32.8288H32.6939V33.6722H34.4087V34.8646ZM27.464 26.5255V14.6269C27.464 14.3938 27.275 14.2052 27.0424 14.2052H8.0067C7.7736 14.2052 7.58502 14.3942 7.58502 14.6269V27.7783H6.53334V8.59735L11.9744 6.42049L17.5243 4.19995L23.0742 6.42049L28.5153 8.59735V26.5255H27.464ZM31.7413 30.1043L31.1575 29.2013H28.6438V30.1043H31.7413ZM31.7606 28.5885C31.6909 28.4512 31.5485 28.3575 31.3843 28.3575H28.3276C28.3099 28.3575 28.2923 28.3588 28.2746 28.3609C28.2574 28.3588 28.2398 28.3575 28.2217 28.3575C27.9886 28.3575 27.8 28.5465 27.8 28.7792V30.526C27.8 30.7591 27.989 30.9477 28.2217 30.9477H32.5133C32.7464 30.9477 32.935 30.7587 32.935 30.526C32.935 30.426 32.9001 30.334 32.8421 30.2618L31.7606 28.5885ZM8.42838 18.1973H26.6203V17.0448H8.42838V18.1973Z" fill="#000099"/>
</svg>
