<svg width="42" height="42" viewBox="0 0 42 42" fill="none" xmlns="http://www.w3.org/2000/svg">
<path d="M13.8973 23.1934H13.1133L13.8973 23.6414V23.1934Z" fill="#000099"/>
<path d="M10.2573 36.0173H13.8973V26.8333L10.2573 24.5933V36.0173Z" fill="#000099"/>
<path d="M14.7373 36.0173H18.3773V29.5773L14.7373 27.3373V36.0173Z" fill="#000099"/>
<path d="M18.3773 23.1934H14.7373V24.2014L18.3773 26.3854V23.1934Z" fill="#000099"/>
<path d="M31.8733 23.1934H28.2333V32.3774L31.8733 34.6174V23.1934Z" fill="#000099"/>
<path d="M22.9133 23.1934H19.2173V26.9454L22.9133 29.1294V23.1934Z" fill="#000099"/>
<path d="M27.3933 23.1934H23.7533V29.6334L27.3933 31.8734V23.1934Z" fill="#000099"/>
<path d="M19.2173 36.0173H22.9133V32.3213L19.2173 30.0813V36.0173Z" fill="#000099"/>
<path d="M32.6573 36.0733L9.97733 22.2413C9.92133 22.1853 9.80933 22.1853 9.69733 22.1853C9.52933 22.1853 9.36133 22.2973 9.24933 22.4093C9.08133 22.6333 9.19333 22.9693 9.41733 23.0813L32.0973 36.9133C32.3213 37.0253 32.6573 36.9693 32.7693 36.7453C32.8253 36.6333 32.8813 36.5213 32.8253 36.3533C32.8813 36.2973 32.7693 36.1853 32.6573 36.0733ZM9.80933 23.0813C9.64133 23.0813 9.47333 22.9133 9.47333 22.7453C9.47333 22.5773 9.64133 22.4093 9.80933 22.4093C9.97733 22.4093 10.1453 22.5773 10.1453 22.7453C10.1453 22.9133 9.97733 23.0813 9.80933 23.0813ZM32.3213 36.8013C32.1533 36.8013 31.9853 36.6333 31.9853 36.4653C31.9853 36.2973 32.1533 36.1293 32.3213 36.1293C32.4893 36.1293 32.6573 36.2973 32.6573 36.4653C32.6013 36.6333 32.4893 36.8013 32.3213 36.8013Z" fill="#000099"/>
<path d="M34.3373 20.2814H7.79334C7.56934 20.2814 7.34534 20.4494 7.34534 20.7294V38.5374C7.34534 38.7614 7.51334 38.9854 7.79334 38.9854H34.3373C34.5613 38.9854 34.7853 38.8174 34.7853 38.5374V20.7294C34.7853 20.4494 34.5613 20.2814 34.3373 20.2814ZM33.5533 37.1934C33.3293 37.5854 32.8813 37.8654 32.3773 37.8654C32.1533 37.8654 31.8733 37.8094 31.7053 37.6974L30.4173 36.9134H27.7853H23.3053H18.8253H14.3453H9.86534C9.64134 36.9134 9.41734 36.7454 9.41734 36.4654V24.0894L9.02534 23.8654C8.40934 23.4734 8.18534 22.6334 8.57734 22.0174C8.80134 21.6254 9.24934 21.4014 9.69734 21.4014C9.97734 21.4014 10.2013 21.4574 10.4253 21.6254L11.7133 22.4094H14.3453H18.8253H23.3053H27.7853H32.2653C32.4893 22.4094 32.7133 22.5774 32.7133 22.8574V35.2334L33.1053 35.4574C33.3853 35.6254 33.6093 35.9614 33.7213 36.2974C33.7773 36.5774 33.7213 36.9134 33.5533 37.1934Z" fill="#000099"/>
<path d="M23.7533 36.0173H27.3933V35.0093L23.7533 32.8253V36.0173Z" fill="#000099"/>
<path d="M28.2333 36.0173H29.0173L28.2333 35.5693V36.0173Z" fill="#000099"/>
<path d="M32.7133 16.4733C32.0413 16.4733 31.4253 16.8093 31.0333 17.3133L23.3053 13.2253C23.4173 12.9453 23.4733 12.6653 23.4733 12.3293C23.4733 11.2093 22.6333 10.2013 21.5693 10.0333V9.24932H22.1293C22.2973 9.24932 22.4093 9.19333 22.4653 9.02532L23.4173 7.34532C23.4733 7.23333 23.4733 7.06532 23.4173 6.89732L22.4653 5.21732C22.4093 5.10532 22.2413 4.99332 22.1293 4.99332H21.5693V3.48133C21.5693 3.25733 21.4013 3.03333 21.1213 3.03333C20.8413 3.03333 20.6733 3.20133 20.6733 3.48133V4.99332H20.1133C19.9453 4.99332 19.8333 5.04932 19.7213 5.21732L18.7693 6.89732C18.7133 7.00932 18.7133 7.17732 18.7693 7.34532L19.7213 9.02532C19.7773 9.13732 19.9453 9.24932 20.1133 9.24932H20.6733V10.3693C20.6733 10.5933 20.8413 10.8173 21.1213 10.8173C21.9613 10.8173 22.6333 11.4893 22.6333 12.3293C22.6333 12.4973 22.5773 12.6653 22.5213 12.8333L21.2333 12.1613C21.1213 12.1053 20.9533 12.1053 20.8413 12.1613L19.6653 12.7773C19.6093 12.6093 19.6093 12.4973 19.6093 12.3293C19.6093 12.1053 19.4413 11.8813 19.1613 11.8813C18.9373 11.8813 18.7133 12.0493 18.7133 12.3293C18.7133 12.6093 18.7693 12.8893 18.8813 13.1693L10.9853 17.3693C10.5933 16.8653 9.97734 16.5293 9.30534 16.5293C8.18534 16.5293 7.23334 17.4253 7.23334 18.6013V19.5533C7.34534 19.4973 7.51334 19.4973 7.68134 19.4973H11.3773V18.6013C11.3773 18.4333 11.3773 18.3213 11.3213 18.2093L19.3853 13.8413C19.8333 14.2893 20.4493 14.6253 21.1213 14.6253C21.7933 14.6253 22.4093 14.3453 22.8013 13.8973L30.6973 18.0973C30.6973 18.2093 30.6413 18.3773 30.6413 18.4893V19.3853H34.3373C34.5053 19.3853 34.6173 19.3853 34.7853 19.4413V18.4893C34.7853 17.4253 33.8333 16.4733 32.7133 16.4733ZM9.64134 18.6013C9.58534 18.6573 9.47334 18.6573 9.41734 18.6573C9.08134 18.6573 8.80134 18.3773 8.80134 18.0413C8.80134 17.7053 9.08134 17.4253 9.41734 17.4253C9.75334 17.4253 9.97734 17.6493 10.0333 17.9853V18.0413C10.0333 18.2653 9.86534 18.4893 9.64134 18.6013ZM21.1213 13.7853C20.7293 13.7853 20.4493 13.6733 20.1693 13.4493L21.0653 13.0013L22.0173 13.5053C21.7933 13.6733 21.4573 13.7853 21.1213 13.7853ZM32.7133 18.6013C32.6573 18.6013 32.5453 18.6013 32.4893 18.5453C32.2653 18.4333 32.0973 18.2093 32.0973 17.9853V17.9293C32.1533 17.6493 32.3773 17.3693 32.7133 17.3693C33.0493 17.3693 33.3293 17.6493 33.3293 17.9853C33.3293 18.3213 33.0493 18.6013 32.7133 18.6013Z" fill="#000099"/>
</svg>
