<svg width="42" height="42" viewBox="0 0 42 42" fill="none" xmlns="http://www.w3.org/2000/svg">
<path d="M11.1612 34.8009C11.5435 34.8009 11.8533 34.491 11.8533 34.1088C11.8533 33.7265 11.5435 33.4166 11.1612 33.4166C10.7789 33.4166 10.4691 33.7265 10.4691 34.1088C10.4691 34.491 10.7789 34.8009 11.1612 34.8009Z" fill="#000099"/>
<path d="M21.9796 11.4847H24.8901C25.069 11.4847 25.2141 11.3396 25.2141 11.1607V5.04077C25.2141 4.86184 25.069 4.7168 24.8901 4.7168H21.9796C21.7737 4.7168 21.6068 4.88371 21.6068 5.08962V11.1119C21.6068 11.3178 21.7737 11.4847 21.9796 11.4847Z" fill="#000099"/>
<path d="M13.5015 10.6526V5.5118C13.5015 5.34284 13.3042 5.25081 13.1748 5.35941L9.92967 8.08221L13.1748 10.805C13.3042 10.9136 13.5015 10.8216 13.5015 10.6526Z" fill="#000099"/>
<path d="M20.586 4.7168H17.6755C17.4965 4.7168 17.3515 4.86184 17.3515 5.04077V11.1607C17.3515 11.3397 17.4965 11.4847 17.6755 11.4847H20.586C20.7919 11.4847 20.9588 11.3178 20.9588 11.1119V5.08962C20.9588 4.88371 20.7919 4.7168 20.586 4.7168Z" fill="#000099"/>
<path d="M9.42558 8.50513L6.29317 11.1334C6.1509 11.2528 6.23532 11.4847 6.42103 11.4847H12.4302C12.6159 11.4847 12.7004 11.2528 12.5581 11.1334L9.42558 8.50513Z" fill="#000099"/>
<path d="M8.92158 8.08215L5.71349 5.39042C5.58406 5.28182 5.38672 5.37384 5.38672 5.54281V10.6215C5.38672 10.7905 5.58406 10.8825 5.71349 10.7739L8.92158 8.08215Z" fill="#000099"/>
<path d="M9.42558 7.65928L12.5138 5.0681C12.6561 4.94873 12.5717 4.7168 12.3859 4.7168H6.46531C6.2796 4.7168 6.19518 4.94872 6.33745 5.0681L9.42558 7.65928Z" fill="#000099"/>
<path d="M30.83 12.4902V14.6297C30.83 14.8274 30.6698 14.9876 30.4722 14.9876H2.75068C2.57176 14.9876 2.42671 14.8425 2.42671 14.6636V12.4563C2.42671 12.2774 2.57176 12.1323 2.75068 12.1323H30.4722C30.6698 12.1323 30.83 12.2926 30.83 12.4902Z" fill="#000099"/>
<path d="M39.5751 12.4563V14.6636C39.5751 14.8428 39.4282 14.9876 39.2511 14.9876H38.5312C38.3335 14.9876 38.1733 14.8274 38.1733 14.6297V12.4902C38.1733 12.2925 38.3335 12.1323 38.5312 12.1323H39.2511C39.4282 12.1323 39.5751 12.277 39.5751 12.4563Z" fill="#000099"/>
<path d="M11.1612 31.7334C9.85141 31.7334 8.78586 32.799 8.78586 34.1088C8.78586 35.4186 9.85141 36.4841 11.1612 36.4841C12.471 36.4841 13.5365 35.4186 13.5365 34.1088C13.5365 32.799 12.471 31.7334 11.1612 31.7334ZM11.1612 35.4488C10.4223 35.4488 9.82114 34.8477 9.82114 34.1088C9.82114 33.3699 10.4223 32.7687 11.1612 32.7687C11.9002 32.7687 12.5013 33.3699 12.5013 34.1088C12.5013 34.8477 11.9002 35.4488 11.1612 35.4488Z" fill="#000099"/>
<path d="M23.9966 33.4166C23.615 33.4166 23.3044 33.7271 23.3044 34.1088C23.3044 34.4904 23.615 34.8009 23.9966 34.8009C24.3783 34.8009 24.6888 34.4904 24.6888 34.1088C24.6888 33.7271 24.3783 33.4166 23.9966 33.4166Z" fill="#000099"/>
<path d="M26.6655 29.2005L26.6654 29.2004H23.47C23.4699 29.2004 23.4698 29.2005 23.4698 29.2005C23.4697 29.2005 23.4697 29.2004 23.4697 29.2004H6.95005C6.41329 29.2004 5.97815 29.6356 5.97815 30.1724V34.1978C5.97815 34.7346 6.41329 35.1697 6.95005 35.1697H7.72171C8.01807 35.1697 8.23081 34.8998 8.18062 34.6077C8.11287 34.2135 8.12234 33.7933 8.23375 33.3592C8.53306 32.1928 9.51626 31.2927 10.7078 31.1185C12.5752 30.8455 14.1845 32.2927 14.1845 34.1086C14.1845 34.2861 14.1684 34.4598 14.1381 34.6286C14.0874 34.9119 14.3125 35.1697 14.6003 35.1697H20.557C20.8534 35.1697 21.0661 34.8998 21.016 34.6077C20.9482 34.2135 20.9577 33.7935 21.069 33.3594C21.3683 32.193 22.3515 31.2929 23.543 31.1186C25.4105 30.8454 27.0199 32.2926 27.0199 34.1086C27.0199 34.2861 27.0038 34.4598 26.9736 34.6286C26.9228 34.9119 27.148 35.1697 27.4358 35.1697H28.139C28.6757 35.1697 29.1109 34.7346 29.1109 34.1978V30.1723C29.1109 29.6356 28.6757 29.2004 28.139 29.2004H26.6657C26.6657 29.2005 26.6656 29.2005 26.6655 29.2005Z" fill="#000099"/>
<path d="M23.9966 31.7334C22.6869 31.7334 21.6212 32.799 21.6212 34.1088C21.6212 35.4186 22.6869 36.4841 23.9966 36.4841C25.3064 36.4841 26.372 35.4186 26.372 34.1088C26.372 32.799 25.3064 31.7334 23.9966 31.7334ZM23.9966 35.4488C23.2577 35.4488 22.6565 34.8477 22.6565 34.1088C22.6565 33.3699 23.2577 32.7687 23.9966 32.7687C24.7356 32.7687 25.3367 33.3699 25.3367 34.1088C25.3367 34.8477 24.7356 35.4488 23.9966 35.4488Z" fill="#000099"/>
<path d="M37.0966 8.0957C36.812 8.06886 36.5751 8.29219 36.5751 8.56868V9.31665C36.5751 9.50235 36.4246 9.65289 36.2389 9.65289H32.7646C32.5789 9.65289 32.4284 9.50235 32.4284 9.31665V8.58546C32.4284 8.36906 32.2913 8.1669 32.0822 8.11079C31.7662 8.02594 31.478 8.26532 31.478 8.56867V36.7911C31.478 37.0075 31.6151 37.2097 31.8241 37.2658C32.1401 37.3506 32.4284 37.1113 32.4284 36.8079V35.3494C32.4284 35.1637 32.5789 35.0131 32.7646 35.0131H36.2389C36.4246 35.0131 36.5751 35.1637 36.5751 35.3494V36.8079C36.5751 37.0844 36.812 37.3077 37.0966 37.2809C37.3449 37.2574 37.5254 37.0308 37.5254 36.7814V8.59514C37.5254 8.34574 37.3449 8.1191 37.0966 8.0957ZM36.2389 34.0628H32.7646C32.5789 34.0628 32.4284 33.9123 32.4284 33.7266V31.8613C32.4284 31.6756 32.5789 31.5251 32.7646 31.5251H36.2389C36.4246 31.5251 36.5751 31.6756 36.5751 31.8613V33.7266C36.5751 33.9123 36.4246 34.0628 36.2389 34.0628ZM36.2389 30.5748H32.7646C32.5789 30.5748 32.4284 30.4242 32.4284 30.2385V28.3754C32.4284 28.1897 32.5789 28.0392 32.7646 28.0392H36.2389C36.4246 28.0392 36.5751 28.1897 36.5751 28.3754V30.2385C36.5751 30.4242 36.4246 30.5748 36.2389 30.5748ZM36.2389 27.0888H32.7646C32.5789 27.0888 32.4284 26.9383 32.4284 26.7526V24.8873C32.4284 24.7016 32.5789 24.5511 32.7646 24.5511H36.2389C36.4246 24.5511 36.5751 24.7016 36.5751 24.8873V26.7526C36.5751 26.9383 36.4246 27.0888 36.2389 27.0888ZM36.2389 23.6008H32.7646C32.5789 23.6008 32.4284 23.4502 32.4284 23.2645V21.4014C32.4284 21.2157 32.5789 21.0652 32.7646 21.0652H36.2389C36.4246 21.0652 36.5751 21.2157 36.5751 21.4014V23.2645C36.5751 23.4502 36.4246 23.6008 36.2389 23.6008ZM36.2389 20.1149H32.7646C32.5789 20.1149 32.4284 19.9644 32.4284 19.7787V17.9134C32.4284 17.7277 32.5789 17.5772 32.7646 17.5772H36.2389C36.4246 17.5772 36.5751 17.7277 36.5751 17.9134V19.7787C36.5751 19.9644 36.4246 20.1149 36.2389 20.1149ZM36.2389 16.6268H32.7646C32.5789 16.6268 32.4284 16.4763 32.4284 16.2906V14.4253C32.4284 14.2396 32.5789 14.0891 32.7646 14.0891H36.2389C36.4246 14.0891 36.5751 14.2396 36.5751 14.4253V16.2906C36.5751 16.4763 36.4246 16.6268 36.2389 16.6268ZM36.2389 13.1388H32.7646C32.5789 13.1388 32.4284 12.9882 32.4284 12.8025V10.9394C32.4284 10.7537 32.5789 10.6032 32.7646 10.6032H36.2389C36.4246 10.6032 36.5751 10.7537 36.5751 10.9394V12.8025C36.5751 12.9882 36.4246 13.1388 36.2389 13.1388Z" fill="#000099"/>
<path d="M19.0614 22.0652C19.0246 22.0976 19.0052 22.1451 19.0052 22.1926C19.0052 22.2423 19.0246 22.2898 19.0614 22.3222L25.4491 28.0329C25.6531 28.2153 25.5241 28.5532 25.2504 28.5532H23.6401C23.4649 28.5532 23.2957 28.4887 23.165 28.372L17.6943 23.4906C17.6619 23.4626 17.6207 23.4474 17.5798 23.4474C17.5366 23.4474 17.4956 23.4626 17.4632 23.4906L11.9946 28.3719C11.8638 28.4887 11.6946 28.5532 11.5193 28.5532H9.88733C9.61343 28.5532 9.4844 28.2149 9.68889 28.0327C11.3672 26.5373 16.0848 22.3338 16.096 22.3222C16.1327 22.2898 16.1543 22.2423 16.1543 22.1926C16.1543 22.1451 16.1327 22.0976 16.096 22.0652L9.50541 16.1555C9.30183 15.9729 9.43096 15.6355 9.70439 15.6355H11.2948C11.47 15.6355 11.6392 15.7 11.7699 15.8167L17.4632 20.8967C17.4956 20.9248 17.5366 20.9399 17.5798 20.9399C17.6207 20.9399 17.6619 20.9248 17.6942 20.8967L23.3874 15.8167C23.5181 15.7 23.6873 15.6355 23.8625 15.6355H25.4919C25.7649 15.6355 25.8953 15.971 25.6927 16.1539C23.9982 17.6827 19.0614 22.0652 19.0614 22.0652Z" fill="#000099"/>
</svg>
