<svg width="23" height="30" viewBox="0 0 23 30" fill="none" xmlns="http://www.w3.org/2000/svg">
<path d="M21.4102 16.316L17.1833 9.84054C17.8353 9.48523 18.2895 8.80358 18.2895 8.01319C18.2895 7.14302 17.7547 6.39611 16.9929 6.07705L18.3554 1.47238C18.48 1.05905 18.3041 0.609449 17.9452 0.391929C17.6595 0.217895 17.1979 0.00760603 16.6192 0.00760603C15.8574 0.00760603 15.1248 0.355674 14.4362 1.03005C14.3117 1.14607 14.1432 1.21133 13.9601 1.21133C13.7256 1.21133 13.5205 1.10981 13.3813 0.943028C12.8685 0.333908 12.2238 0.000366211 11.4839 0.000366211C10.517 0.000366211 9.89428 0.59496 9.60857 0.950314C9.4767 1.12435 9.25693 1.21861 9.02982 1.21861C8.83935 1.21861 8.67087 1.15335 8.56098 1.04458C7.86502 0.37021 7.13245 0.0221414 6.37058 0.0221414C5.78453 0.0221414 5.32299 0.23243 5.04464 0.406464C4.67836 0.624007 4.51719 1.06636 4.6344 1.4942L5.99696 6.09158C5.23509 6.41064 4.70032 7.15755 4.70032 8.02772C4.70032 8.81812 5.14719 9.49977 5.81383 9.85508L1.5796 16.3305C0.363506 18.2087 -0.185886 20.3769 0.0558505 22.4436C0.348879 25.0251 1.6675 27.0409 3.97511 28.4405C5.66736 29.463 7.71124 29.9996 9.90178 29.9996H13.1031C15.2861 29.9996 17.3373 29.463 19.0223 28.4405C21.3299 27.041 22.6485 25.0179 22.9488 22.4436C23.1759 20.3624 22.6336 18.1868 21.4102 16.316ZM5.92382 1.37088C6.06301 1.32012 6.20952 1.29111 6.34871 1.29111C6.7736 1.29111 7.21317 1.51591 7.65266 1.94372C8.01162 2.29179 8.49513 2.47306 9.01522 2.47306C9.63789 2.47306 10.2313 2.19025 10.6049 1.73339C10.7514 1.55936 11.0444 1.26206 11.4913 1.26206C11.8283 1.26206 12.1066 1.42159 12.3631 1.73339C12.7367 2.19748 13.33 2.47306 13.9527 2.47306C14.4729 2.47306 14.9636 2.28453 15.3153 1.94372C15.7621 1.50863 16.2017 1.29111 16.6119 1.29111C16.7584 1.29111 16.9049 1.31287 17.0441 1.37088L15.6889 5.92478H7.27875L5.92382 1.37088ZM21.6667 22.2838C21.4176 24.4592 20.3041 26.1633 18.3482 27.3382C16.861 28.2373 15.0443 28.716 13.0957 28.716H9.89437C7.9384 28.716 6.12162 28.2374 4.6344 27.3382C2.67843 26.1635 1.56492 24.4594 1.31587 22.2838C1.11075 20.4999 1.58692 18.629 2.64181 16.9973L7.14713 10.1083H15.8283L20.3336 16.9973C21.3958 18.6289 21.8718 20.4997 21.6667 22.2838Z" fill="#000099"/>
<path d="M11.496 12.9993C8.46684 12.9993 5.9996 15.6986 5.9996 19.0029C5.9996 22.3073 8.46666 24.999 11.496 24.999C14.5324 24.999 16.9993 22.3076 16.9993 19.0029C16.9993 15.6982 14.5323 12.9993 11.496 12.9993ZM11.496 18.3104C12.5105 18.3104 13.3353 19.2101 13.3353 20.317C13.3353 21.169 12.839 21.9015 12.1383 22.1882V22.3952C12.1383 22.7854 11.8536 23.0959 11.5032 23.0959C11.1529 23.0959 10.8682 22.7774 10.8682 22.3952V22.1882C10.1748 21.9015 9.67118 21.169 9.67118 20.317C9.67118 19.9268 9.96314 19.6162 10.3135 19.6162C10.6638 19.6162 10.9485 19.9348 10.9485 20.317C10.9485 20.6514 11.1967 20.9221 11.5032 20.9221C11.8171 20.9221 12.0653 20.6434 12.0653 20.317C12.0653 19.9746 11.8098 19.7039 11.5032 19.7039C10.4887 19.7039 9.66389 18.8041 9.66389 17.6973C9.66389 16.8373 10.1675 16.1127 10.8609 15.8261V15.6111C10.8609 15.2289 11.1529 14.9183 11.496 14.9183H11.5033C11.8536 14.9183 12.1383 15.2368 12.1383 15.6111V15.8261C12.8317 16.1127 13.328 16.8453 13.328 17.6973C13.328 18.0874 13.0434 18.39 12.693 18.39C12.3427 18.39 12.058 18.0795 12.058 17.6973C12.058 17.3628 11.8025 17.0921 11.496 17.0921C11.1821 17.0921 10.9412 17.3708 10.9412 17.6973C10.9339 18.0317 11.1821 18.3104 11.496 18.3104Z" fill="#000099"/>
</svg>
